<svg width="1022" height="218" viewBox="0 0 1022 218" fill="none" xmlns="http://www.w3.org/2000/svg">
<path d="M154 186H51.333V134.667H102.667V83.333H154V186ZM102.667 83.333H51.333V134.667H0V32H102.667V83.333Z" fill="white"/>
<path d="M257.972 174V157.572L323.298 65.9105H257.844V43.0909H358.071V59.5185L292.68 151.18H358.199V174H257.972ZM423.669 175.918C413.57 175.918 404.877 173.872 397.59 169.781C390.346 165.648 384.763 159.81 380.843 152.267C376.922 144.682 374.962 135.712 374.962 125.357C374.962 115.257 376.922 106.393 380.843 98.7656C384.763 91.1378 390.282 85.1932 397.398 80.9318C404.557 76.6705 412.952 74.5398 422.583 74.5398C429.06 74.5398 435.09 75.5838 440.672 77.6719C446.297 79.7173 451.198 82.8068 455.374 86.9403C459.593 91.0739 462.874 96.2727 465.218 102.537C467.561 108.759 468.733 116.045 468.733 124.398V131.876H385.828V115.001H443.101C443.101 111.081 442.249 107.608 440.544 104.582C438.84 101.557 436.475 99.1918 433.449 97.4872C430.466 95.7401 426.993 94.8665 423.03 94.8665C418.897 94.8665 415.232 95.8253 412.036 97.7429C408.882 99.6179 406.411 102.153 404.621 105.349C402.831 108.503 401.915 112.018 401.873 115.896V131.94C401.873 136.798 402.767 140.996 404.557 144.533C406.39 148.07 408.968 150.797 412.292 152.714C415.615 154.632 419.557 155.591 424.117 155.591C427.142 155.591 429.912 155.165 432.426 154.312C434.941 153.46 437.093 152.182 438.882 150.477C440.672 148.773 442.036 146.685 442.973 144.213L468.158 145.875C466.88 151.926 464.259 157.21 460.296 161.727C456.375 166.202 451.304 169.696 445.083 172.21C438.904 174.682 431.766 175.918 423.669 175.918ZM486.503 174V75.8182H512.902V92.9489H513.925C515.715 86.8551 518.719 82.2528 522.938 79.142C527.157 75.9886 532.015 74.4119 537.512 74.4119C538.875 74.4119 540.346 74.4972 541.922 74.6676C543.499 74.8381 544.884 75.0724 546.077 75.3707V99.5327C544.799 99.1491 543.03 98.8082 540.772 98.5099C538.513 98.2116 536.446 98.0625 534.571 98.0625C530.566 98.0625 526.986 98.9361 523.833 100.683C520.722 102.388 518.25 104.774 516.418 107.842C514.628 110.911 513.733 114.447 513.733 118.453V174H486.503ZM599.946 175.918C590.017 175.918 581.43 173.808 574.186 169.589C566.984 165.328 561.423 159.405 557.503 151.82C553.582 144.192 551.622 135.349 551.622 125.293C551.622 115.151 553.582 106.287 557.503 98.7017C561.423 91.0739 566.984 85.1506 574.186 80.9318C581.43 76.6705 590.017 74.5398 599.946 74.5398C609.875 74.5398 618.44 76.6705 625.642 80.9318C632.886 85.1506 638.469 91.0739 642.389 98.7017C646.31 106.287 648.27 115.151 648.27 125.293C648.27 135.349 646.31 144.192 642.389 151.82C638.469 159.405 632.886 165.328 625.642 169.589C618.44 173.808 609.875 175.918 599.946 175.918ZM600.074 154.824C604.591 154.824 608.362 153.545 611.388 150.989C614.413 148.389 616.693 144.852 618.227 140.378C619.804 135.903 620.592 130.811 620.592 125.101C620.592 119.391 619.804 114.298 618.227 109.824C616.693 105.349 614.413 101.812 611.388 99.2131C608.362 96.6136 604.591 95.3139 600.074 95.3139C595.514 95.3139 591.679 96.6136 588.568 99.2131C585.5 101.812 583.178 105.349 581.601 109.824C580.067 114.298 579.3 119.391 579.3 125.101C579.3 130.811 580.067 135.903 581.601 140.378C583.178 144.852 585.5 148.389 588.568 150.989C591.679 153.545 595.514 154.824 600.074 154.824ZM666.487 174V43.0909H754.697V65.9105H694.165V97.1037H750.159V119.923H694.165V151.18H754.953V174H666.487ZM867.725 75.8182L833.4 174H802.718L768.392 75.8182H797.157L817.547 146.067H818.57L838.897 75.8182H867.725ZM907.02 175.854C900.756 175.854 895.173 174.767 890.273 172.594C885.372 170.378 881.494 167.118 878.639 162.814C875.827 158.467 874.42 153.055 874.42 146.578C874.42 141.124 875.422 136.543 877.425 132.835C879.428 129.128 882.155 126.145 885.607 123.886C889.058 121.628 892.979 119.923 897.368 118.773C901.8 117.622 906.445 116.812 911.303 116.344C917.013 115.747 921.615 115.193 925.109 114.682C928.604 114.128 931.139 113.318 932.716 112.253C934.293 111.187 935.081 109.611 935.081 107.523V107.139C935.081 103.091 933.803 99.9588 931.246 97.7429C928.732 95.527 925.152 94.419 920.507 94.419C915.607 94.419 911.707 95.5057 908.81 97.679C905.912 99.8097 903.994 102.494 903.057 105.733L877.872 103.688C879.151 97.7216 881.665 92.5653 885.415 88.2188C889.165 83.8295 894.001 80.4631 899.925 78.1193C905.891 75.733 912.794 74.5398 920.635 74.5398C926.089 74.5398 931.31 75.179 936.295 76.4574C941.324 77.7358 945.777 79.7173 949.655 82.402C953.575 85.0866 956.665 88.5384 958.923 92.7571C961.182 96.9332 962.311 101.94 962.311 107.778V174H936.487V160.385H935.72C934.143 163.453 932.034 166.159 929.392 168.503C926.75 170.804 923.575 172.615 919.868 173.936C916.161 175.214 911.878 175.854 907.02 175.854ZM914.818 157.061C918.824 157.061 922.361 156.273 925.429 154.696C928.497 153.077 930.905 150.903 932.652 148.176C934.399 145.449 935.273 142.359 935.273 138.908V128.489C934.42 129.043 933.249 129.554 931.757 130.023C930.308 130.449 928.668 130.854 926.835 131.237C925.003 131.578 923.17 131.898 921.338 132.196C919.506 132.452 917.844 132.686 916.352 132.899C913.156 133.368 910.365 134.114 907.979 135.136C905.592 136.159 903.739 137.544 902.418 139.291C901.097 140.996 900.436 143.126 900.436 145.683C900.436 149.391 901.778 152.224 904.463 154.185C907.19 156.102 910.642 157.061 914.818 157.061ZM1010.67 43.0909V174H983.437V43.0909H1010.67Z" fill="white"/>
</svg>
