<?xml version="1.0" encoding="utf-8"?>
<svg height="44.352000000000004" style="max-height: 500px" version="1.1" viewBox="25.344 25.728 44.352000000000004 44.352000000000004" width="44.352000000000004" xmlns="http://www.w3.org/2000/svg"><g transform="translate(36.072, 64.67999999999999)"><path d="M15.31-33.79L15.31-33.79Q15.36-33.79 15.7-33.82 16.03-33.84 16.27-33.84L16.27-33.84Q18.86-33.6 20.3-31.49L20.3-31.49Q22.18-28.66 22.18-23.76L22.18-23.76Q22.18-22.46 22.08-21.7L22.08-21.7Q21.46-15.31 18.77-9.74L18.77-9.74Q17.14-6.34 14.95-3.79 12.77-1.25 10.66-0.19L10.66-0.19Q9.17 0.48 8.06 0.48L8.06 0.48 7.73 0.48Q5.62 0.48 4.22-1.01L4.22-1.01Q1.68-3.7 1.68-9.6L1.68-9.6Q1.68-11.9 2.16-14.45L2.16-14.45Q3.94-24.05 9.41-30.14L9.41-30.14Q12.34-33.36 15.31-33.79ZM18.38-27.17L18.38-27.17Q18.38-32.06 15.84-32.06L15.84-32.06Q14.26-32.06 12.58-30L12.58-30Q10.18-26.98 8.5-21.36L8.5-21.36Q7.54-18.34 7.54-17.81L7.54-17.81Q9.89-17.76 12.19-17.76L12.19-17.76 16.85-17.81Q17.09-18.05 17.71-21.55L17.71-21.55Q18.38-25.06 18.38-27.17ZM16.08-14.74L16.08-14.74 16.32-15.55 6.96-15.55 6.91-15.22Q5.42-9.26 5.42-6.34L5.42-6.34Q5.42-3.07 6.58-1.82L6.58-1.82Q7.1-1.25 7.97-1.25L7.97-1.25Q9.89-1.25 12-4.37L12-4.37Q14.26-7.68 16.08-14.74Z" fill="#ffffff"/></g></svg>